<svg width="50" height="50" viewBox="0 0 50 50" fill="none" xmlns="http://www.w3.org/2000/svg">
<path d="M25 33.333C24.5132 33.334 24.0415 33.1644 23.6667 32.8538L11.1667 22.4372C10.7412 22.0836 10.4737 21.5754 10.4229 21.0245C10.3721 20.4736 10.5422 19.9251 10.8958 19.4997C11.2495 19.0742 11.7576 18.8067 12.3085 18.7559C12.8594 18.7051 13.4079 18.8752 13.8333 19.2288L25 28.5622L36.1667 19.5622C36.3798 19.3891 36.625 19.2599 36.8882 19.1819C37.1514 19.1039 37.4274 19.0787 37.7004 19.1078C37.9734 19.1368 38.2379 19.2195 38.4788 19.3511C38.7197 19.4827 38.9323 19.6607 39.1042 19.8747C39.295 20.0889 39.4395 20.3402 39.5286 20.6128C39.6178 20.8855 39.6496 21.1736 39.6223 21.4592C39.5949 21.7447 39.5088 22.0215 39.3695 22.2723C39.2302 22.523 39.0405 22.7423 38.8125 22.9163L26.3125 32.9788C25.9269 33.2403 25.4648 33.365 25 33.333Z" fill="#004AAD"/>
</svg>
