<svg width="378" height="70" viewBox="0 0 378 70" fill="none" xmlns="http://www.w3.org/2000/svg">
<path d="M35 70C54.33 70 70 54.33 70 35C70 15.67 54.33 0 35 0C15.67 0 0 15.67 0 35C0 54.33 15.67 70 35 70Z" fill="#1DA1F2"/>
<path d="M53.1836 24.2539C51.8984 24.8213 50.5244 25.2041 49.0752 25.3818C50.5518 24.4932 51.6865 23.0918 52.2197 21.4238C50.8389 22.2305 49.3008 22.8184 47.6738 23.1465C46.3682 21.752 44.5156 20.877 42.4512 20.877C38.5 20.877 35.2939 24.083 35.2939 28.0273C35.2939 28.5947 35.3623 29.1416 35.4785 29.6611C29.5312 29.3809 24.2539 26.5234 20.7266 22.2031C20.1045 23.2559 19.7559 24.4727 19.7559 25.8057C19.7559 28.2939 21.0205 30.4814 22.9414 31.7666C21.7656 31.7256 20.665 31.4043 19.7012 30.8711V30.96C19.7012 34.4326 22.1621 37.3242 25.4434 37.9805C24.8418 38.1445 24.2061 38.2266 23.5566 38.2266C23.0986 38.2266 22.6611 38.1855 22.2236 38.1035C23.1396 40.9473 25.7783 43.0186 28.9229 43.0732C26.4824 44.9941 23.3789 46.1357 20.0498 46.1357C19.4824 46.1357 18.915 46.1016 18.3477 46.04C21.5332 48.0703 25.2861 49.2529 29.3398 49.2529C42.499 49.2529 49.6973 38.3496 49.6973 28.9092C49.6973 28.6084 49.6973 28.3008 49.6768 27.9932C51.0713 26.9883 52.2949 25.7236 53.252 24.2881L53.1836 24.2539Z" fill="white"/>
<path d="M137.375 70C156.705 70 172.375 54.33 172.375 35C172.375 15.67 156.705 0 137.375 0C118.045 0 102.375 15.67 102.375 35C102.375 54.33 118.045 70 137.375 70Z" fill="#E43535"/>
<path fill-rule="evenodd" clip-rule="evenodd" d="M148.698 46.6667H127.218C124.463 46.6667 122.208 44.3634 122.208 41.5484V29.6183C122.208 26.8032 124.463 24.5 127.218 24.5H148.698C151.454 24.5 153.708 26.8032 153.708 29.6183V41.5484C153.708 44.3634 151.454 46.6667 148.698 46.6667ZM135.098 31.2965V40.7634L143.675 35.8757L135.098 31.2965Z" fill="white"/>
<path d="M342.125 70C361.455 70 377.125 54.33 377.125 35C377.125 15.67 361.455 0 342.125 0C322.795 0 307.125 15.67 307.125 35C307.125 54.33 322.795 70 342.125 70Z" fill="#3C5A99"/>
<path d="M344.846 52.5V36.5586H350.219L351.025 30.3174H344.846V26.3457C344.846 24.541 345.345 23.3174 347.929 23.3174H351.203V17.7529C350.636 17.6777 348.681 17.5068 346.404 17.5068C341.653 17.5068 338.399 20.4053 338.399 25.7305V30.3242H333.047V36.5654H338.399V52.5H344.846Z" fill="white"/>
<path d="M239.75 70C259.08 70 274.75 54.33 274.75 35C274.75 15.67 259.08 0 239.75 0C220.42 0 204.75 15.67 204.75 35C204.75 54.33 220.42 70 239.75 70Z" fill="#E4405F"/>
<path d="M239.75 17.5C234.999 17.5 234.404 17.5205 232.538 17.6025C230.672 17.6914 229.407 17.9854 228.293 18.416C227.145 18.8604 226.167 19.4619 225.189 20.4326C224.212 21.4033 223.617 22.3809 223.173 23.5361C222.742 24.6504 222.448 25.9219 222.359 27.7812C222.271 29.6475 222.257 30.2422 222.257 34.9932C222.257 39.7441 222.277 40.3389 222.359 42.2051C222.448 44.0645 222.742 45.3359 223.173 46.4502C223.617 47.5986 224.219 48.5762 225.189 49.5537C226.16 50.5244 227.138 51.126 228.293 51.5703C229.407 52.001 230.679 52.2949 232.538 52.3838C234.404 52.4727 234.999 52.4863 239.75 52.4863C244.501 52.4863 245.096 52.4658 246.962 52.3838C248.821 52.2949 250.093 52.001 251.207 51.5703C252.355 51.126 253.333 50.5244 254.311 49.5537C255.281 48.583 255.883 47.6055 256.327 46.4502C256.758 45.3359 257.052 44.0645 257.141 42.2051C257.229 40.3389 257.243 39.7441 257.243 34.9932C257.243 30.2422 257.223 29.6475 257.141 27.7812C257.052 25.9219 256.758 24.6504 256.327 23.5361C255.883 22.3877 255.281 21.4102 254.311 20.4326C253.34 19.4619 252.362 18.8604 251.207 18.416C250.093 17.9854 248.821 17.6914 246.962 17.6025C245.096 17.5205 244.501 17.5 239.75 17.5ZM239.75 20.6514C244.419 20.6514 244.979 20.6719 246.825 20.7539C248.534 20.8359 249.457 21.1162 250.072 21.3623C250.893 21.6768 251.474 22.0596 252.089 22.668C252.697 23.2832 253.08 23.8643 253.395 24.6846C253.634 25.2998 253.921 26.2227 253.996 27.9316C254.078 29.7773 254.099 30.3311 254.099 35.0068C254.099 39.6826 254.078 40.2363 253.989 42.082C253.9 43.791 253.613 44.7139 253.374 45.3291C253.046 46.1494 252.677 46.7305 252.062 47.3457C251.453 47.9541 250.858 48.3369 250.052 48.6514C249.437 48.8906 248.5 49.1777 246.791 49.2529C244.932 49.335 244.385 49.3555 239.702 49.3555C235.02 49.3555 234.473 49.335 232.613 49.2461C230.904 49.1572 229.968 48.8701 229.353 48.6309C228.525 48.3027 227.951 47.9336 227.343 47.3184C226.728 46.71 226.338 46.1152 226.03 45.3086C225.791 44.6934 225.504 43.7568 225.415 42.0478C225.347 40.209 225.326 39.6416 225.326 34.9863C225.326 30.3242 225.347 29.7568 225.415 27.8975C225.504 26.1885 225.784 25.252 226.03 24.6367C226.338 23.8027 226.728 23.2354 227.343 22.6201C227.951 22.0117 228.525 21.6152 229.353 21.3076C229.968 21.0684 230.884 20.7813 232.593 20.6924C234.452 20.624 234.999 20.6035 239.682 20.6035L239.75 20.6514ZM239.75 26.0107C234.787 26.0107 230.761 30.0371 230.761 35C230.761 39.9629 234.787 43.9893 239.75 43.9893C244.713 43.9893 248.739 39.9629 248.739 35C248.739 30.0371 244.713 26.0107 239.75 26.0107ZM239.75 40.8311C236.53 40.8311 233.919 38.2197 233.919 35C233.919 31.7803 236.53 29.1689 239.75 29.1689C242.97 29.1689 245.581 31.7803 245.581 35C245.581 38.2197 242.97 40.8311 239.75 40.8311ZM251.193 25.6621C251.193 26.8242 250.25 27.7607 249.095 27.7607C247.933 27.7607 246.996 26.8174 246.996 25.6621C246.996 24.5068 247.939 23.5635 249.095 23.5635C250.25 23.5566 251.193 24.5 251.193 25.6621Z" fill="white"/>
</svg>
