<svg width="137" height="137" viewBox="0 0 137 137" fill="none" xmlns="http://www.w3.org/2000/svg">
<g clip-path="url(#clip0_67_5328)">
<path d="M104.777 87.7437C109.788 71.8773 110.354 60.2374 104.218 53.7789C103.027 52.5336 101.661 51.4672 100.164 50.6129C95.6159 47.9869 90.4642 48.621 82.3638 43.9442C74.2634 39.2675 72.2299 34.485 67.6883 31.8629C66.1381 30.9572 64.4693 30.2715 62.7301 29.8257C54.0588 27.7355 44.2952 34.0762 33.0293 46.3199C21.5235 58.8266 15.5536 70.5105 20.5779 76.316C24.0968 80.3774 29.8468 79.5001 36.2462 77.0176C43.5217 74.1817 49.6672 75.5647 60.4976 81.8176C71.328 88.0706 75.3955 92.584 76.584 100.307C77.6284 107.091 79.9116 112.555 85.0355 113.567C93.342 115.203 99.6033 104.131 104.777 87.7437Z" stroke="white" stroke-width="6.25" stroke-miterlimit="10"/>
<path d="M75.5624 69.7871C77.4307 70.8657 79.8197 70.2256 80.8984 68.3573C81.9771 66.4889 81.337 64.0999 79.4686 63.0212C77.6003 61.9426 75.2113 62.5827 74.1326 64.451C73.0539 66.3194 73.6941 68.7084 75.5624 69.7871Z" fill="white"/>
<path d="M78.7079 81.5263C78.0385 81.1398 77.4988 80.5634 77.1571 79.87C76.8154 79.1766 76.6872 78.3974 76.7885 77.6311C76.8899 76.8648 77.2164 76.1458 77.7266 75.5651C78.2368 74.9844 78.9079 74.5681 79.6548 74.369C80.4017 74.1699 81.1909 74.1968 81.9225 74.4464C82.654 74.6961 83.2951 75.1571 83.7645 75.7713C84.234 76.3854 84.5106 77.125 84.5595 77.8965C84.6084 78.6679 84.4272 79.4365 84.0391 80.105C83.5197 80.9994 82.6667 81.6514 81.6673 81.9178C80.6679 82.1843 79.6037 82.0435 78.7079 81.5263Z" fill="white"/>
<path d="M87.3017 66.6416C89.17 67.7202 91.559 67.0801 92.6377 65.2118C93.7164 63.3434 93.0762 60.9544 91.2079 59.8757C89.3396 58.7971 86.9506 59.4372 85.8719 61.3055C84.7932 63.1738 85.4333 65.5629 87.3017 66.6416Z" fill="white"/>
<path d="M90.4472 78.3808C92.3155 79.4595 94.7046 78.8194 95.7832 76.951C96.8619 75.0827 96.2218 72.6937 94.3534 71.615C92.4851 70.5363 90.0961 71.1764 89.0174 73.0448C87.9387 74.9131 88.5789 77.3021 90.4472 78.3808Z" fill="white"/>
<path d="M59.8758 45.3945L50.5008 61.6325M63.3073 58.201L47.0693 48.826" stroke="white" stroke-width="6.25" stroke-linecap="round" stroke-linejoin="round"/>
</g>
<defs>
<clipPath id="clip0_67_5328">
<rect width="100" height="100" fill="white" transform="translate(50) rotate(30)"/>
</clipPath>
</defs>
</svg>
