<svg width="100" height="100" viewBox="0 0 100 100" fill="none" xmlns="http://www.w3.org/2000/svg">
<path d="M66.2583 36.751L65.3104 35.8031L66.7479 34.3667C68.0625 33.049 68.0635 30.9083 66.7479 29.5958C66.1094 28.9562 65.2625 28.6052 64.3604 28.6052C63.4594 28.6052 62.6125 28.9562 61.975 29.5948C60.1354 31.4302 57.1427 31.4302 55.3031 29.5958C53.4656 27.7552 53.4656 24.7625 55.3031 22.924L56.251 23.8708C54.9354 25.1875 54.9354 27.3302 56.251 28.6479C57.5667 29.9615 59.7104 29.9615 61.0271 28.6469C61.9167 27.7562 63.101 27.2656 64.3604 27.2656C65.6208 27.2656 66.8052 27.7562 67.6958 28.6479C69.5344 30.4823 69.5344 33.4729 67.6958 35.3146L66.2583 36.751Z" fill="#FF914D"/>
<mask id="mask0_20_6" style="mask-type:luminance" maskUnits="userSpaceOnUse" x="55" y="18" width="2" height="3">
<path d="M55.2 18.1885H56.2667V20.8H55.2V18.1885Z" fill="white"/>
</mask>
<g mask="url(#mask0_20_6)">
<path d="M55.2938 18.1885H56.2594V20.5417H55.2938V18.1885Z" fill="#004AAD"/>
</g>
<path d="M53.9333 21.1688L52.7562 19.1323L53.5927 18.649L54.7708 20.6854L53.9333 21.1688Z" fill="#004AAD"/>
<path d="M53.0562 22.3865L51.0187 21.2094L51.5031 20.3719L53.5406 21.549L53.0562 22.3865Z" fill="#004AAD"/>
<path d="M50.5646 22.9146H52.9177V23.8802H50.5646V22.9146Z" fill="#004AAD"/>
<path d="M57.9677 28.1541L56.7896 26.1156L57.6271 25.6323L58.8041 27.6708L57.9677 28.1541Z" fill="#004AAD"/>
<path d="M60.0479 26.425L58.0104 25.2489L58.4948 24.4114L60.5313 25.5875L60.0479 26.425Z" fill="#004AAD"/>
<path d="M58.6365 22.9146H60.9906V23.8802H58.6365V22.9146Z" fill="#004AAD"/>
<path d="M58.4958 22.3875L58.0115 21.551L60.049 20.374L60.5333 21.2104L58.4958 22.3875Z" fill="#004AAD"/>
<path d="M57.625 21.1646L56.7886 20.6823L57.9646 18.6448L58.8021 19.1281L57.625 21.1646Z" fill="#004AAD"/>
<mask id="mask1_20_6" style="mask-type:luminance" maskUnits="userSpaceOnUse" x="37" y="34" width="31" height="31">
<path d="M37.201 34.9333H67.2V64.7886H37.201V34.9333Z" fill="white"/>
</mask>
<g mask="url(#mask1_20_6)">
<path d="M67.049 49.8979C67.049 58.124 60.3792 64.7886 52.1563 64.7886C43.9292 64.7886 37.2615 58.124 37.2615 49.8979C37.2615 41.6771 43.9292 35.0125 52.1563 35.0125C60.3802 35.0125 67.049 41.6771 67.049 49.8979Z" fill="#04266D"/>
</g>
<path d="M42.9302 48.4469C42.7802 48.4469 42.6281 48.4239 42.4781 48.376C41.6948 48.1271 41.2615 47.2896 41.5104 46.5062C42.6052 43.0646 45.3156 40.3552 48.7604 39.2594C49.5438 39.0114 50.3823 39.4437 50.6313 40.2281C50.8802 41.0114 50.4469 41.8489 49.6635 42.0979C47.1375 42.9 45.1521 44.8854 44.349 47.4083C44.1479 48.0427 43.5615 48.4469 42.9302 48.4469Z" fill="white"/>
<path d="M67.9177 40.4604C68.1802 40.1979 68.3427 39.8365 68.3427 39.4365C68.3427 39.0365 68.1802 38.674 67.9177 38.4115L63.65 34.1438C63.3875 33.8813 63.025 33.7188 62.624 33.7198C62.2229 33.7198 61.8615 33.8823 61.599 34.1438L59.0448 36.699L65.3625 43.0156L67.9177 40.4604Z" fill="#3871C1"/>
<mask id="mask2_20_6" style="mask-type:luminance" maskUnits="userSpaceOnUse" x="50" y="45" width="10" height="12">
<path d="M50.1334 45.3333H59.2V56.5333H50.1334V45.3333Z" fill="white"/>
</mask>
<g mask="url(#mask2_20_6)">
<mask id="mask3_20_6" style="mask-type:luminance" maskUnits="userSpaceOnUse" x="49" y="44" width="14" height="14">
<path d="M58.1604 44.4625L62.9021 50.9063L54.3636 57.1875L49.6229 50.7438L58.1604 44.4625Z" fill="white"/>
</mask>
<g mask="url(#mask3_20_6)">
<mask id="mask4_20_6" style="mask-type:luminance" maskUnits="userSpaceOnUse" x="49" y="44" width="14" height="14">
<path d="M58.1604 44.4625L62.9021 50.9063L54.3636 57.1875L49.6229 50.7438L58.1604 44.4625Z" fill="white"/>
</mask>
<g mask="url(#mask4_20_6)">
<mask id="mask5_20_6" style="mask-type:luminance" maskUnits="userSpaceOnUse" x="49" y="44" width="14" height="14">
<path d="M58.1604 44.4625L62.9021 50.9063L54.3636 57.1875L49.6229 50.7438L58.1604 44.4625Z" fill="white"/>
</mask>
<g mask="url(#mask5_20_6)">
<path d="M54.4364 53.6084L52.925 51.9584C53.2364 51.5365 53.3041 50.975 53.0989 50.4865L56.0802 48.6157L59.051 45.6771L58.9604 45.5542L55.2708 47.5157L52.5635 49.8292C52.0521 49.4782 51.3562 49.4677 50.8302 49.8552C50.1646 50.3459 50.0229 51.2834 50.5146 51.9511C50.9135 52.4948 51.6094 52.6907 52.2135 52.4813L53.3396 54.4157L55.5094 56.3427L55.6312 56.2532L54.4364 53.6084ZM50.9708 51.6146C50.6666 51.2 50.7541 50.6177 51.1677 50.3136C51.4489 50.1063 51.8094 50.0823 52.1073 50.2198L52.1041 50.2229C52.2062 50.2698 52.3021 50.3334 52.3844 50.4167C52.3875 50.4198 52.3896 50.4219 52.3916 50.424C52.4187 50.4521 52.4437 50.4813 52.4677 50.5136C52.4844 50.5354 52.4979 50.5584 52.5125 50.5813C52.5531 50.65 52.5823 50.7219 52.6052 50.7959L52.6073 50.7938C52.6823 51.0386 52.6531 51.3042 52.5281 51.525L52.5271 51.524C52.4646 51.6344 52.3802 51.7344 52.2719 51.8146C52.1625 51.8948 52.0416 51.9459 51.9177 51.9719L51.9187 51.9729C51.5708 52.0479 51.1958 51.9198 50.9708 51.6146Z" fill="white"/>
</g>
</g>
</g>
</g>
</svg>
